<svg width="170" height="142" viewBox="0 0 170 142" fill="none" xmlns="http://www.w3.org/2000/svg">
<path d="M71.6953 0.594519C42.6016 5.18436 18.1836 23.1531 7.06563 47.9578C2.59766 57.8211 -0.62343 73.2508 2.07813 71.6883C2.70157 71.3953 3.1172 71.4929 3.1172 72.0789C3.1172 73.9344 6.65001 75.0086 8.52032 73.739C10.1828 72.5672 10.0789 72.3719 7.48126 71.1023C4.05235 69.4422 1.66251 67.3914 2.38985 66.7078C3.1172 65.9265 12.5727 71.6883 11.9492 72.4695C11.7414 72.8601 12.157 72.5672 13.0922 71.7859C15.2742 70.0281 14.2352 68.4656 9.66329 66.6101C7.68907 65.8289 6.23438 65.0476 6.5461 64.7547C7.16954 64.0711 14.5469 67.489 14.5469 68.4656C14.5469 68.8562 15.482 68.7586 16.625 68.075C17.8719 67.2937 18.7031 65.7312 18.7031 64.1687C18.7031 62.0203 19.2227 61.4344 20.7813 61.4344C22.0281 61.4344 23.7945 60.6531 24.9375 59.6765C26.7039 58.114 26.7039 57.6258 25.457 53.1336C24.7297 50.3992 23.3789 46.5906 22.4438 44.4422C21.5086 42.3914 20.7813 39.8523 20.7813 38.7781C20.7813 36.1414 23.6906 31.1609 25.2492 31.1609C25.8727 31.2586 27.743 33.7 29.4055 36.825C30.9641 39.8523 34.6008 46.4929 37.4063 51.5711C40.2117 56.6492 42.1859 61.239 41.8742 61.7273C41.5625 62.1179 39.7961 59.2859 38.0297 55.3797C35.1203 49.325 26.7039 34.4812 25.3531 33.2117C25.1453 32.9187 24.2102 33.6023 23.3789 34.6765C21.9242 36.4344 22.132 40.8289 23.6906 43.3679C24.0024 43.8562 24.418 45.1258 24.418 46.0047C24.5219 46.9812 25.6649 48.9344 27.1195 50.3015C28.782 51.9617 28.9899 52.5476 27.8469 52.157C26.2883 51.5711 26.1844 51.864 27.0156 54.6961C27.5352 56.4539 28.4703 58.3094 29.0938 58.8953C30.8602 60.5554 30.2367 61.532 28.0547 60.4578C26.3922 59.5789 25.7688 59.6765 25.3531 60.9461C25.0414 61.7273 23.5867 62.4109 22.2359 62.4109C20.2617 62.4109 19.7422 62.8992 19.7422 64.7547C19.7422 67.5867 12.7805 74.7156 10.2867 74.325C7.89688 73.9344 7.58516 75.3992 6.75391 87.8015C6.4422 93.4656 5.40313 104.403 4.57188 112.118C3.74063 119.833 3.1172 126.864 3.1172 127.841C3.1172 129.208 6.33829 130.38 19.0149 133.7C33.7695 137.606 43.6406 139.95 49.9789 141.22C51.5375 141.512 53.0961 141.22 53.4078 140.634C54.343 139.364 62.032 139.169 62.8633 140.438C63.175 140.927 65.1492 141.122 67.3313 140.829C71.6953 140.243 111.284 129.989 112.115 129.305C112.323 129.012 112.011 123.153 111.388 116.317C110.66 109.481 109.933 99.325 109.621 93.6609C108.686 77.5476 108.166 75.1062 106.088 75.1062C104.114 75.1062 101.516 72.7625 100.477 69.9304C100.062 69.0515 99.1266 68.2703 98.1914 68.2703C97.2563 68.2703 96.6328 67.3914 96.6328 65.8289C96.6328 63.8758 96.1133 63.3875 94.0352 63.3875C92.3727 63.3875 91.4375 62.8015 91.4375 61.9226C91.4375 59.7742 88.8399 60.0672 82.8133 62.9969C74.7086 66.8054 68.2664 71.5906 63.3828 77.5476C60.993 80.4773 58.707 82.9187 58.2914 82.9187C57.9797 82.9187 57.0445 82.0398 56.3172 80.8679L54.9664 78.9148L52.8883 81.1609C50.9141 83.3094 50.8102 83.3094 51.8492 81.2586C52.4727 80.0867 52.9922 78.1336 52.9922 76.864C52.9922 73.5437 50.9141 67.1961 49.9789 67.6844C49.5633 67.9773 49.4594 66.9031 49.6672 65.2429C50.1867 61.9226 48.0047 53.6219 46.6539 53.6219C46.1344 53.6219 45.7188 54.5008 45.7188 55.4773C45.7188 56.5515 45.3031 57.6258 44.7836 58.0164C44.1602 58.3094 43.9524 57.1375 44.368 55.1844C44.8875 51.7664 41.9781 42.8797 40.3156 42.8797C39.7961 42.8797 39.4844 42.3914 39.4844 41.8054C39.4844 40.1453 31.5875 33.114 29.7172 33.114C28.782 33.114 28.0547 32.7234 28.0547 32.2351C28.0547 31.7469 28.9899 31.5515 30.1328 31.8445C33.5617 32.7234 40.4195 40.0476 43.7445 46.2976C49.5633 57.4304 48.732 56.9422 54.2391 51.6687C57.0445 49.032 62.2399 45.5164 66.1883 43.6609C72.8383 40.6336 73.7734 40.4383 84.6836 40.4383C95.0742 40.4383 96.6328 40.6336 102.036 43.1726C116.375 49.8133 124.999 61.6297 126.662 77.0594C127.597 86.532 129.259 90.1453 134.455 94.4422C146.196 104.11 164.899 98.1531 168.432 83.5047C169.367 79.2078 169.471 76.2781 168.432 69.5398C162.509 28.9148 126.662 -0.577356 83.9563 0.00858193C78.657 0.106238 73.15 0.399207 71.6953 0.594519ZM12.9883 63.3875C13.3 63.9734 12.8844 64.0711 12.0531 63.7781C10.1828 63.0945 9.8711 62.4109 11.3258 62.4109C11.9492 62.4109 12.6766 62.8015 12.9883 63.3875ZM35.6399 64.364C36.6789 65.3406 36.1594 65.4383 33.4578 65.0476L30.0289 64.364L33.3539 68.9539C35.5359 71.8836 36.1594 73.2508 35.0164 72.8601C33.7695 72.4695 33.5617 72.6648 33.9774 73.9344C34.9125 76.1804 37.5102 80.282 38.8609 81.4539C39.4844 82.0398 40.8352 83.7976 41.7703 85.3601C42.7055 87.0203 44.7836 88.9734 46.4461 89.8523C48.6281 91.0242 49.4594 92.3914 50.0828 95.614C51.1219 101.571 52.3688 101.962 51.5375 96.1023C51.018 92.489 51.3297 89.95 52.7844 86.4344C54.0313 83.407 55.0703 82.1375 55.5899 82.8211C56.0055 83.5047 56.525 95.0281 56.7328 108.407L57.0445 132.723L53.7195 128.622C48.9399 122.762 39.0688 115.438 31.2758 111.923L24.6258 108.993L25.3531 94.7351C25.6649 86.9226 26.2883 76.3758 26.6 71.3953L27.2234 62.4109L30.8602 62.8015C32.8344 62.9969 35.0164 63.6804 35.6399 64.364ZM42.9133 63.8758C42.6016 64.7547 42.082 65.2429 41.8742 64.95C41.5625 64.657 41.6664 64.0711 42.082 63.4851C43.0172 61.9226 43.6406 62.2156 42.9133 63.8758ZM90.8141 100.985L91.5414 107.821L82.9172 112.216C74.7086 116.415 66.2922 123.153 61.5125 129.305L59.2266 132.235L59.3305 108.407L59.5383 84.5789L67.2274 76.9617C72.3188 71.8836 77.0984 68.3679 81.8781 66.0242L88.8399 62.5086L89.4633 78.3289C89.8789 87.0203 90.3984 97.1765 90.8141 100.985ZM24.5219 70.907C24.2102 74.6179 23.5867 85.1648 23.1711 94.3445C22.6516 107.333 22.8594 111.239 23.7945 111.239C26.6 111.239 40.3156 118.368 44.6797 122.079C47.9008 124.911 48.4203 125.595 46.3422 124.423C44.6797 123.446 41.8742 121.884 40.1078 120.907C38.3414 119.93 32.7305 117.88 27.5352 116.22C20.2617 113.876 18.1836 112.899 18.3914 111.532C18.4953 110.555 19.1188 102.255 19.7422 93.1726C21.6125 65.3406 21.8203 64.364 23.5867 64.364C25.0414 64.364 25.1453 65.3406 24.5219 70.907ZM94.9703 70.4187C95.282 73.8367 96.0094 83.6023 96.6328 92.1961C97.2563 100.79 97.9836 108.993 98.1914 110.458C98.5031 112.313 98.0875 113.192 96.8406 113.583C83.3328 117.196 78.8649 118.563 75.6438 120.126C73.4617 121.2 71.6953 121.884 71.6953 121.688C71.6953 121.005 82.7094 114.364 88.3203 111.727L93.8274 109.091L93.2039 98.739C91.0219 64.5594 91.0219 64.364 92.7883 64.364C94.0352 64.364 94.5547 65.8289 94.9703 70.4187ZM45.9266 71.6883C46.3422 71.2976 46.3422 71.9812 46.0305 73.2508C45.407 75.3992 45.3031 75.3015 44.0563 72.1765C43.3289 70.3211 42.8094 68.075 42.8094 67.2937C42.8094 66.5125 43.3289 67.2937 44.0563 69.0515C44.6797 70.8094 45.5109 71.9812 45.9266 71.6883ZM19.2227 76.7664C18.9109 80.9656 18.1836 90.3406 17.6641 97.4695C16.2094 116.415 15.7938 114.852 21.6125 116.024C26.4961 117.001 32.6266 118.954 30.6524 118.954C30.1328 118.856 26.3922 118.368 22.4438 117.684L15.2742 116.512L15.482 108.798C15.5859 104.501 16.1055 94.3445 16.625 86.3367C17.1445 78.2312 17.6641 71.1023 17.6641 70.4187C17.6641 69.8328 18.1836 69.2469 18.7031 69.2469C19.4305 69.2469 19.6383 71.9812 19.2227 76.7664ZM99.5422 83.6023C100.27 91.0242 100.997 101.571 101.309 107.04L101.932 117.098H97.8797C95.5938 117.098 92.1649 117.294 90.2945 117.587C88.3203 117.782 89.6711 117.294 93.3078 116.512L99.75 114.95V111.434C99.75 109.384 99.0227 100.106 98.1914 90.7312C96.425 70.4187 96.425 70.2234 97.568 70.2234C97.9836 70.2234 98.9188 76.2781 99.5422 83.6023ZM14.0274 95.8094C13.4039 116.024 13.3 116.708 10.7024 120.321C9.24766 122.274 7.89688 123.837 7.68907 123.641C7.48126 123.446 8.1047 112.997 9.03985 100.399C10.3906 81.9422 11.0141 77.3523 12.3649 76.3758C13.3 75.6922 14.2352 75.1062 14.443 75.1062C14.6508 75.1062 14.443 84.4812 14.0274 95.8094ZM103.802 76.4734C104.53 77.2547 105.465 84.3836 106.088 93.3679C106.712 101.864 107.439 112.216 107.959 116.317C108.686 124.325 108.166 124.911 105.049 119.247C103.491 116.317 102.971 112.313 102.452 98.5437C102.036 89.1687 101.516 79.989 101.101 78.2312C100.477 74.9109 101.724 74.1297 103.802 76.4734ZM30.4445 120.126C37.0945 121.298 46.8617 126.083 51.4336 130.38L55.1742 133.798L52.3688 136.63L49.5633 139.364L44.2641 137.899C31.5875 134.384 8.83204 127.645 8.41641 127.255C6.85782 125.79 10.2867 126.278 19.4305 128.72C36.0555 133.212 35.2242 133.016 32.107 131.356C30.5484 130.477 25.2492 128.72 20.1578 127.352C15.1703 125.985 10.8063 124.618 10.4945 124.423C8.1047 122.079 21.4047 124.13 33.0422 127.938C36.1594 128.915 38.9649 129.598 39.1727 129.403C39.6922 128.915 32.5227 126.571 21.3008 123.348C16.7289 122.079 14.443 121.2 16.1055 121.395C26.4961 122.762 27.1195 122.762 21.093 121.298C8.72813 118.27 15.5859 117.391 30.4445 120.126ZM102.971 120.126C104.114 122.177 104.01 122.177 99.6461 121.591C97.1524 121.298 93.7234 121.395 91.957 121.884C88.9438 122.762 88.9438 122.762 91.4375 122.958C93.1 123.055 91.3336 123.934 86.2422 125.595C81.982 126.864 78.0336 128.427 77.4102 129.012C76.6828 129.794 76.9945 129.891 78.4492 129.305C93.6195 124.032 105.984 121.493 105.984 123.837C105.984 124.423 105.153 125.204 104.218 125.497C103.179 125.79 101.413 126.473 100.27 126.962C98.5031 127.743 98.607 127.841 100.997 127.352C102.452 127.059 104.426 126.571 105.361 126.278C106.296 125.985 107.023 126.18 107.023 126.766C107.023 127.352 102.971 128.915 97.9836 130.38C92.8922 131.747 83.9563 134.384 77.9297 136.141L67.0195 139.462L63.9024 136.434L60.7852 133.505L65.7727 129.208C71.0719 124.716 77.8258 121.884 89.0477 119.637C99.1266 117.587 101.516 117.684 102.971 120.126ZM97.9836 122.665C97.2563 122.86 96.0094 122.86 95.3859 122.665C94.6586 122.372 95.1781 122.177 96.6328 122.177C98.0875 122.177 98.607 122.372 97.9836 122.665Z" fill="black"/>
<path d="M29.0938 123.641C29.925 123.934 33.4578 125.204 36.8867 126.473C40.3156 127.841 42.6016 128.427 42.082 127.938C40.7313 126.766 30.4445 122.958 28.782 123.055C28.0547 123.055 28.2625 123.348 29.0938 123.641Z" fill="black"/>
<path d="M83.125 123.837C79.8 124.813 73.7734 127.743 73.7734 128.427C73.7734 128.622 74.8125 128.427 75.9555 127.743C77.2023 127.157 80.6313 125.887 83.5406 124.911C88.632 123.153 88.3203 122.372 83.125 123.837Z" fill="black"/>
<path d="M89.3594 129.794C86.2422 130.77 84.5797 131.552 85.7227 131.552C86.8656 131.552 90.1906 130.77 92.9961 129.794C99.75 127.45 96.8406 127.45 89.3594 129.794Z" fill="black"/>
<path d="M0 79.0125C0 81.8445 0.311718 83.9929 0.623437 83.7C1.35078 82.9187 1.45469 75.1062 0.623437 74.4226C0.311718 74.032 0 76.1804 0 79.0125Z" fill="black"/>
<path d="M5.40314 78.0359C5.40314 79.8914 5.61095 80.6726 5.92267 79.6961C6.13048 78.8172 6.13048 77.2547 5.92267 76.2781C5.61095 75.3992 5.40314 76.1804 5.40314 78.0359Z" fill="black"/>
<path d="M3.84452 85.5554C3.63671 86.0437 3.74061 87.4109 4.26014 88.7781C4.98749 91.0242 4.98749 91.0242 5.09139 87.9969C5.1953 84.9695 4.77967 84.0906 3.84452 85.5554Z" fill="black"/>
<path d="M1.24689 89.2664C1.24689 90.8289 1.4547 91.4148 1.76642 90.4383C1.97423 89.5593 1.97423 88.1922 1.76642 87.5086C1.4547 86.9226 1.24689 87.6062 1.24689 89.2664Z" fill="black"/>
</svg>
