<?xml version="1.0" standalone="no"?>
<!DOCTYPE svg PUBLIC "-//W3C//DTD SVG 20010904//EN"
 "http://www.w3.org/TR/2001/REC-SVG-20010904/DTD/svg10.dtd">
<svg version="1.0" xmlns="http://www.w3.org/2000/svg"
 width="256.000000pt" height="256.000000pt" viewBox="0 0 256.000000 256.000000"
 preserveAspectRatio="xMidYMid meet">

<g transform="translate(0.000000,256.000000) scale(0.100000,-0.100000)"
fill="#000000" stroke="none">
<path d="M1180 2123 c-280 -47 -515 -231 -622 -485 -43 -101 -74 -259 -48
-243 6 3 10 2 10 -4 0 -19 34 -30 52 -17 16 12 15 14 -10 27 -33 17 -56 38
-49 45 7 8 98 -51 92 -59 -2 -4 2 -1 11 7 21 18 11 34 -33 53 -19 8 -33 16
-30 19 6 7 77 -28 77 -38 0 -4 9 -3 20 4 12 8 20 24 20 40 0 22 5 28 20 28 12
0 29 8 40 18 17 16 17 21 5 67 -7 28 -20 67 -29 89 -9 21 -16 47 -16 58 0 27
28 78 43 78 6 -1 24 -26 40 -58 15 -31 50 -99 77 -151 27 -52 46 -99 43 -104
-3 -4 -20 25 -37 65 -28 62 -109 214 -122 227 -2 3 -11 -4 -19 -15 -14 -18
-12 -63 3 -89 3 -5 7 -18 7 -27 1 -10 12 -30 26 -44 16 -17 18 -23 7 -19 -15
6 -16 3 -8 -26 5 -18 14 -37 20 -43 17 -17 11 -27 -10 -16 -16 9 -22 8 -26 -5
-3 -8 -17 -15 -30 -15 -19 0 -24 -5 -24 -24 0 -29 -67 -102 -91 -98 -23 4 -26
-11 -34 -138 -3 -58 -13 -170 -21 -249 -8 -79 -14 -151 -14 -161 0 -14 31 -26
153 -60 142 -40 237 -64 298 -77 15 -3 30 0 33 6 9 13 83 15 91 2 3 -5 22 -7
43 -4 42 6 423 111 431 118 2 3 -1 63 -7 133 -7 70 -14 174 -17 232 -9 165
-14 190 -34 190 -19 0 -44 24 -54 53 -4 9 -13 17 -22 17 -9 0 -15 9 -15 25 0
20 -5 25 -25 25 -16 0 -25 6 -25 15 0 22 -25 19 -83 -11 -78 -39 -140 -88
-187 -149 -23 -30 -45 -55 -49 -55 -3 0 -12 9 -19 21 l-13 20 -20 -23 c-19
-22 -20 -22 -10 -1 6 12 11 32 11 45 0 34 -20 99 -29 94 -4 -3 -5 8 -3 25 5
34 -16 119 -29 119 -5 0 -9 -9 -9 -19 0 -11 -4 -22 -9 -26 -6 -3 -8 9 -4 29 5
35 -23 126 -39 126 -5 0 -8 5 -8 11 0 17 -76 89 -94 89 -9 0 -16 4 -16 9 0 5
9 7 20 4 33 -9 99 -84 131 -148 56 -114 48 -109 101 -55 27 27 77 63 115 82
64 31 73 33 178 33 100 0 115 -2 167 -28 138 -68 221 -189 237 -347 9 -97 25
-134 75 -178 113 -99 293 -38 327 112 9 44 10 74 0 143 -57 416 -402 718 -813
712 -51 -1 -104 -4 -118 -6z m-565 -643 c3 -6 -1 -7 -9 -4 -18 7 -21 14 -7 14
6 0 13 -4 16 -10z m218 -10 c10 -10 5 -11 -21 -7 l-33 7 32 -47 c21 -30 27
-44 16 -40 -12 4 -14 2 -10 -11 9 -23 34 -65 47 -77 6 -6 19 -24 28 -40 9 -17
29 -37 45 -46 21 -12 29 -26 35 -59 10 -61 22 -65 14 -5 -5 37 -2 63 12 99 12
31 22 44 27 37 4 -7 9 -125 11 -262 l3 -249 -32 42 c-46 60 -141 135 -216 171
l-64 30 7 146 c3 80 9 188 12 239 l6 92 35 -4 c19 -2 40 -9 46 -16z m70 5 c-3
-9 -8 -14 -10 -11 -3 3 -2 9 2 15 9 16 15 13 8 -4z m461 -380 l7 -70 -83 -45
c-79 -43 -160 -112 -206 -175 l-22 -30 1 244 2 244 74 78 c49 52 95 88 141
112 l67 36 6 -162 c4 -89 9 -193 13 -232z m-638 308 c-3 -38 -9 -146 -13 -240
-5 -133 -3 -173 6 -173 27 0 159 -73 201 -111 31 -29 36 -36 16 -24 -16 10
-43 26 -60 36 -17 10 -71 31 -121 48 -70 24 -90 34 -88 48 1 10 7 95 13 188
18 285 20 295 37 295 14 0 15 -10 9 -67z m678 5 c3 -35 10 -135 16 -223 6 -88
13 -172 15 -187 3 -19 -1 -28 -13 -32 -130 -37 -173 -51 -204 -67 -21 -11 -38
-18 -38 -16 0 7 106 75 160 102 l53 27 -6 106 c-21 350 -21 352 -4 352 12 0
17 -15 21 -62z m-472 -13 c4 4 4 -3 1 -16 -6 -22 -7 -21 -19 11 -7 19 -12 42
-12 50 0 8 5 0 12 -18 6 -18 14 -30 18 -27z m-257 -52 c-3 -43 -10 -139 -15
-212 -14 -194 -18 -178 38 -190 47 -10 106 -30 87 -30 -5 1 -41 6 -79 13 l-69
12 2 79 c1 44 6 148 11 230 5 83 10 156 10 163 0 6 5 12 10 12 7 0 9 -28 5
-77z m773 -70 c7 -76 14 -184 17 -240 l6 -103 -39 0 c-22 0 -55 -2 -73 -5 -19
-2 -6 3 29 11 l62 16 0 36 c0 21 -7 116 -15 212 -17 208 -17 210 -6 210 4 0
13 -62 19 -137z m-823 -125 c-6 -207 -7 -214 -32 -251 -14 -20 -27 -36 -29
-34 -2 2 4 109 13 238 13 189 19 236 32 246 9 7 18 13 20 13 2 0 0 -96 -4
-212z m864 198 c7 -8 16 -81 22 -173 6 -87 13 -193 18 -235 7 -82 2 -88 -28
-30 -15 30 -20 71 -25 212 -4 96 -9 190 -13 208 -6 34 6 42 26 18z m-706 -447
c64 -12 158 -61 202 -105 l36 -35 -27 -29 -27 -28 -51 15 c-122 36 -341 105
-345 109 -15 15 18 10 106 -15 160 -46 152 -44 122 -27 -15 9 -66 27 -115 41
-48 14 -90 28 -93 30 -23 24 105 3 217 -36 30 -10 57 -17 59 -15 5 5 -64 29
-172 62 -44 13 -66 22 -50 20 100 -14 106 -14 48 1 -119 31 -53 40 90 12z
m698 0 c11 -21 10 -21 -32 -15 -24 3 -57 2 -74 -3 -29 -9 -29 -9 -5 -11 16 -1
-1 -10 -50 -27 -41 -13 -79 -29 -85 -35 -7 -8 -4 -9 10 -3 146 54 265 80 265
56 0 -6 -8 -14 -17 -17 -10 -3 -27 -10 -38 -15 -17 -8 -16 -9 7 -4 14 3 33 8
42 11 9 3 16 1 16 -5 0 -6 -39 -22 -87 -37 -49 -14 -135 -41 -193 -59 l-105
-34 -30 31 -30 30 48 44 c51 46 116 75 224 98 97 21 120 20 134 -5z m-48 -26
c-7 -2 -19 -2 -25 0 -7 3 -2 5 12 5 14 0 19 -2 13 -5z"/>
<path d="M770 863 c8 -3 42 -16 75 -29 33 -14 55 -20 50 -15 -13 12 -112 51
-128 50 -7 0 -5 -3 3 -6z"/>
<path d="M1290 861 c-32 -10 -90 -40 -90 -47 0 -2 10 0 21 7 12 6 45 19 73 29
49 18 46 26 -4 11z"/>
<path d="M1350 800 c-30 -10 -46 -18 -35 -18 11 0 43 8 70 18 65 24 37 24 -35
0z"/>
<path d="M490 1320 c0 -29 3 -51 6 -48 7 8 8 88 0 95 -3 4 -6 -18 -6 -47z"/>
<path d="M542 1330 c0 -19 2 -27 5 -17 2 9 2 25 0 35 -3 9 -5 1 -5 -18z"/>
<path d="M527 1253 c-2 -5 -1 -19 4 -33 7 -23 7 -23 8 8 1 31 -3 40 -12 25z"/>
<path d="M502 1215 c0 -16 2 -22 5 -12 2 9 2 23 0 30 -3 6 -5 -1 -5 -18z"/>
</g>
</svg>
