<?xml version="1.0" standalone="no"?>
<svg xmlns:xlink="http://www.w3.org/1999/xlink" version="1.1" xmlns="http://www.w3.org/2000/svg" id="QRCodeGenerate" class="img-fluid mw-75" data-copyright="my-qrcode.net" data-modulecount="25" data-defaultsize="270" data-defaultclass="img-fluid mw-75" data-text="Политех" data-color="rgb(0, 0, 0)" data-backcolor="none" data-typeicon="none" data-framesize="none" data-framewidth="0" data-titlelocation="none" data-titlefont="sans-serif" data-titletext="" data-typenumber="0" data-errorcorrectionlevel="Q" data-mode="Byte" data-mb="UTF-8" width="270px" height="270px" x="0px" y="0px" viewBox="0 0 270 270" preserveAspectRatio="xMinYMin meet"><rect width="100%" height="100%" fill="none" x="0" y="0"/><path d="M10,10l10,0 0,10 -10,0 0,-10z M20,10l10,0 0,10 -10,0 0,-10z M30,10l10,0 0,10 -10,0 0,-10z M40,10l10,0 0,10 -10,0 0,-10z M50,10l10,0 0,10 -10,0 0,-10z M60,10l10,0 0,10 -10,0 0,-10z M70,10l10,0 0,10 -10,0 0,-10z M90,10l10,0 0,10 -10,0 0,-10z M110,10l10,0 0,10 -10,0 0,-10z M130,10l10,0 0,10 -10,0 0,-10z M140,10l10,0 0,10 -10,0 0,-10z M150,10l10,0 0,10 -10,0 0,-10z M160,10l10,0 0,10 -10,0 0,-10z M190,10l10,0 0,10 -10,0 0,-10z M200,10l10,0 0,10 -10,0 0,-10z M210,10l10,0 0,10 -10,0 0,-10z M220,10l10,0 0,10 -10,0 0,-10z M230,10l10,0 0,10 -10,0 0,-10z M240,10l10,0 0,10 -10,0 0,-10z M250,10l10,0 0,10 -10,0 0,-10z M10,20l10,0 0,10 -10,0 0,-10z M70,20l10,0 0,10 -10,0 0,-10z M90,20l10,0 0,10 -10,0 0,-10z M160,20l10,0 0,10 -10,0 0,-10z M190,20l10,0 0,10 -10,0 0,-10z M250,20l10,0 0,10 -10,0 0,-10z M10,30l10,0 0,10 -10,0 0,-10z M30,30l10,0 0,10 -10,0 0,-10z M40,30l10,0 0,10 -10,0 0,-10z M50,30l10,0 0,10 -10,0 0,-10z M70,30l10,0 0,10 -10,0 0,-10z M120,30l10,0 0,10 -10,0 0,-10z M130,30l10,0 0,10 -10,0 0,-10z M150,30l10,0 0,10 -10,0 0,-10z M170,30l10,0 0,10 -10,0 0,-10z M190,30l10,0 0,10 -10,0 0,-10z M210,30l10,0 0,10 -10,0 0,-10z M220,30l10,0 0,10 -10,0 0,-10z M230,30l10,0 0,10 -10,0 0,-10z M250,30l10,0 0,10 -10,0 0,-10z M10,40l10,0 0,10 -10,0 0,-10z M30,40l10,0 0,10 -10,0 0,-10z M40,40l10,0 0,10 -10,0 0,-10z M50,40l10,0 0,10 -10,0 0,-10z M70,40l10,0 0,10 -10,0 0,-10z M100,40l10,0 0,10 -10,0 0,-10z M110,40l10,0 0,10 -10,0 0,-10z M120,40l10,0 0,10 -10,0 0,-10z M150,40l10,0 0,10 -10,0 0,-10z M160,40l10,0 0,10 -10,0 0,-10z M190,40l10,0 0,10 -10,0 0,-10z M210,40l10,0 0,10 -10,0 0,-10z M220,40l10,0 0,10 -10,0 0,-10z M230,40l10,0 0,10 -10,0 0,-10z M250,40l10,0 0,10 -10,0 0,-10z M10,50l10,0 0,10 -10,0 0,-10z M30,50l10,0 0,10 -10,0 0,-10z M40,50l10,0 0,10 -10,0 0,-10z M50,50l10,0 0,10 -10,0 0,-10z M70,50l10,0 0,10 -10,0 0,-10z M100,50l10,0 0,10 -10,0 0,-10z M120,50l10,0 0,10 -10,0 0,-10z M140,50l10,0 0,10 -10,0 0,-10z M150,50l10,0 0,10 -10,0 0,-10z M160,50l10,0 0,10 -10,0 0,-10z M190,50l10,0 0,10 -10,0 0,-10z M210,50l10,0 0,10 -10,0 0,-10z M220,50l10,0 0,10 -10,0 0,-10z M230,50l10,0 0,10 -10,0 0,-10z M250,50l10,0 0,10 -10,0 0,-10z M10,60l10,0 0,10 -10,0 0,-10z M70,60l10,0 0,10 -10,0 0,-10z M100,60l10,0 0,10 -10,0 0,-10z M110,60l10,0 0,10 -10,0 0,-10z M140,60l10,0 0,10 -10,0 0,-10z M150,60l10,0 0,10 -10,0 0,-10z M170,60l10,0 0,10 -10,0 0,-10z M190,60l10,0 0,10 -10,0 0,-10z M250,60l10,0 0,10 -10,0 0,-10z M10,70l10,0 0,10 -10,0 0,-10z M20,70l10,0 0,10 -10,0 0,-10z M30,70l10,0 0,10 -10,0 0,-10z M40,70l10,0 0,10 -10,0 0,-10z M50,70l10,0 0,10 -10,0 0,-10z M60,70l10,0 0,10 -10,0 0,-10z M70,70l10,0 0,10 -10,0 0,-10z M90,70l10,0 0,10 -10,0 0,-10z M110,70l10,0 0,10 -10,0 0,-10z M130,70l10,0 0,10 -10,0 0,-10z M150,70l10,0 0,10 -10,0 0,-10z M170,70l10,0 0,10 -10,0 0,-10z M190,70l10,0 0,10 -10,0 0,-10z M200,70l10,0 0,10 -10,0 0,-10z M210,70l10,0 0,10 -10,0 0,-10z M220,70l10,0 0,10 -10,0 0,-10z M230,70l10,0 0,10 -10,0 0,-10z M240,70l10,0 0,10 -10,0 0,-10z M250,70l10,0 0,10 -10,0 0,-10z M120,80l10,0 0,10 -10,0 0,-10z M130,80l10,0 0,10 -10,0 0,-10z M140,80l10,0 0,10 -10,0 0,-10z M20,90l10,0 0,10 -10,0 0,-10z M70,90l10,0 0,10 -10,0 0,-10z M80,90l10,0 0,10 -10,0 0,-10z M90,90l10,0 0,10 -10,0 0,-10z M100,90l10,0 0,10 -10,0 0,-10z M110,90l10,0 0,10 -10,0 0,-10z M150,90l10,0 0,10 -10,0 0,-10z M160,90l10,0 0,10 -10,0 0,-10z M180,90l10,0 0,10 -10,0 0,-10z M240,90l10,0 0,10 -10,0 0,-10z M250,90l10,0 0,10 -10,0 0,-10z M10,100l10,0 0,10 -10,0 0,-10z M20,100l10,0 0,10 -10,0 0,-10z M30,100l10,0 0,10 -10,0 0,-10z M80,100l10,0 0,10 -10,0 0,-10z M90,100l10,0 0,10 -10,0 0,-10z M110,100l10,0 0,10 -10,0 0,-10z M150,100l10,0 0,10 -10,0 0,-10z M190,100l10,0 0,10 -10,0 0,-10z M230,100l10,0 0,10 -10,0 0,-10z M240,100l10,0 0,10 -10,0 0,-10z M250,100l10,0 0,10 -10,0 0,-10z M20,110l10,0 0,10 -10,0 0,-10z M40,110l10,0 0,10 -10,0 0,-10z M60,110l10,0 0,10 -10,0 0,-10z M70,110l10,0 0,10 -10,0 0,-10z M80,110l10,0 0,10 -10,0 0,-10z M100,110l10,0 0,10 -10,0 0,-10z M190,110l10,0 0,10 -10,0 0,-10z M200,110l10,0 0,10 -10,0 0,-10z M220,110l10,0 0,10 -10,0 0,-10z M240,110l10,0 0,10 -10,0 0,-10z M10,120l10,0 0,10 -10,0 0,-10z M40,120l10,0 0,10 -10,0 0,-10z M50,120l10,0 0,10 -10,0 0,-10z M80,120l10,0 0,10 -10,0 0,-10z M100,120l10,0 0,10 -10,0 0,-10z M120,120l10,0 0,10 -10,0 0,-10z M130,120l10,0 0,10 -10,0 0,-10z M150,120l10,0 0,10 -10,0 0,-10z M160,120l10,0 0,10 -10,0 0,-10z M170,120l10,0 0,10 -10,0 0,-10z M230,120l10,0 0,10 -10,0 0,-10z M240,120l10,0 0,10 -10,0 0,-10z M10,130l10,0 0,10 -10,0 0,-10z M20,130l10,0 0,10 -10,0 0,-10z M40,130l10,0 0,10 -10,0 0,-10z M50,130l10,0 0,10 -10,0 0,-10z M60,130l10,0 0,10 -10,0 0,-10z M70,130l10,0 0,10 -10,0 0,-10z M80,130l10,0 0,10 -10,0 0,-10z M90,130l10,0 0,10 -10,0 0,-10z M110,130l10,0 0,10 -10,0 0,-10z M120,130l10,0 0,10 -10,0 0,-10z M140,130l10,0 0,10 -10,0 0,-10z M150,130l10,0 0,10 -10,0 0,-10z M170,130l10,0 0,10 -10,0 0,-10z M210,130l10,0 0,10 -10,0 0,-10z M10,140l10,0 0,10 -10,0 0,-10z M40,140l10,0 0,10 -10,0 0,-10z M110,140l10,0 0,10 -10,0 0,-10z M140,140l10,0 0,10 -10,0 0,-10z M150,140l10,0 0,10 -10,0 0,-10z M180,140l10,0 0,10 -10,0 0,-10z M190,140l10,0 0,10 -10,0 0,-10z M200,140l10,0 0,10 -10,0 0,-10z M210,140l10,0 0,10 -10,0 0,-10z M220,140l10,0 0,10 -10,0 0,-10z M230,140l10,0 0,10 -10,0 0,-10z M240,140l10,0 0,10 -10,0 0,-10z M250,140l10,0 0,10 -10,0 0,-10z M10,150l10,0 0,10 -10,0 0,-10z M40,150l10,0 0,10 -10,0 0,-10z M50,150l10,0 0,10 -10,0 0,-10z M60,150l10,0 0,10 -10,0 0,-10z M70,150l10,0 0,10 -10,0 0,-10z M80,150l10,0 0,10 -10,0 0,-10z M120,150l10,0 0,10 -10,0 0,-10z M140,150l10,0 0,10 -10,0 0,-10z M160,150l10,0 0,10 -10,0 0,-10z M170,150l10,0 0,10 -10,0 0,-10z M190,150l10,0 0,10 -10,0 0,-10z M220,150l10,0 0,10 -10,0 0,-10z M230,150l10,0 0,10 -10,0 0,-10z M10,160l10,0 0,10 -10,0 0,-10z M30,160l10,0 0,10 -10,0 0,-10z M40,160l10,0 0,10 -10,0 0,-10z M50,160l10,0 0,10 -10,0 0,-10z M110,160l10,0 0,10 -10,0 0,-10z M120,160l10,0 0,10 -10,0 0,-10z M130,160l10,0 0,10 -10,0 0,-10z M150,160l10,0 0,10 -10,0 0,-10z M190,160l10,0 0,10 -10,0 0,-10z M220,160l10,0 0,10 -10,0 0,-10z M250,160l10,0 0,10 -10,0 0,-10z M10,170l10,0 0,10 -10,0 0,-10z M30,170l10,0 0,10 -10,0 0,-10z M40,170l10,0 0,10 -10,0 0,-10z M60,170l10,0 0,10 -10,0 0,-10z M70,170l10,0 0,10 -10,0 0,-10z M80,170l10,0 0,10 -10,0 0,-10z M90,170l10,0 0,10 -10,0 0,-10z M120,170l10,0 0,10 -10,0 0,-10z M140,170l10,0 0,10 -10,0 0,-10z M150,170l10,0 0,10 -10,0 0,-10z M160,170l10,0 0,10 -10,0 0,-10z M170,170l10,0 0,10 -10,0 0,-10z M180,170l10,0 0,10 -10,0 0,-10z M190,170l10,0 0,10 -10,0 0,-10z M200,170l10,0 0,10 -10,0 0,-10z M210,170l10,0 0,10 -10,0 0,-10z M250,170l10,0 0,10 -10,0 0,-10z M90,180l10,0 0,10 -10,0 0,-10z M110,180l10,0 0,10 -10,0 0,-10z M120,180l10,0 0,10 -10,0 0,-10z M170,180l10,0 0,10 -10,0 0,-10z M210,180l10,0 0,10 -10,0 0,-10z M240,180l10,0 0,10 -10,0 0,-10z M250,180l10,0 0,10 -10,0 0,-10z M10,190l10,0 0,10 -10,0 0,-10z M20,190l10,0 0,10 -10,0 0,-10z M30,190l10,0 0,10 -10,0 0,-10z M40,190l10,0 0,10 -10,0 0,-10z M50,190l10,0 0,10 -10,0 0,-10z M60,190l10,0 0,10 -10,0 0,-10z M70,190l10,0 0,10 -10,0 0,-10z M90,190l10,0 0,10 -10,0 0,-10z M130,190l10,0 0,10 -10,0 0,-10z M140,190l10,0 0,10 -10,0 0,-10z M160,190l10,0 0,10 -10,0 0,-10z M170,190l10,0 0,10 -10,0 0,-10z M190,190l10,0 0,10 -10,0 0,-10z M210,190l10,0 0,10 -10,0 0,-10z M220,190l10,0 0,10 -10,0 0,-10z M230,190l10,0 0,10 -10,0 0,-10z M10,200l10,0 0,10 -10,0 0,-10z M70,200l10,0 0,10 -10,0 0,-10z M120,200l10,0 0,10 -10,0 0,-10z M130,200l10,0 0,10 -10,0 0,-10z M150,200l10,0 0,10 -10,0 0,-10z M170,200l10,0 0,10 -10,0 0,-10z M210,200l10,0 0,10 -10,0 0,-10z M230,200l10,0 0,10 -10,0 0,-10z M10,210l10,0 0,10 -10,0 0,-10z M30,210l10,0 0,10 -10,0 0,-10z M40,210l10,0 0,10 -10,0 0,-10z M50,210l10,0 0,10 -10,0 0,-10z M70,210l10,0 0,10 -10,0 0,-10z M100,210l10,0 0,10 -10,0 0,-10z M130,210l10,0 0,10 -10,0 0,-10z M150,210l10,0 0,10 -10,0 0,-10z M170,210l10,0 0,10 -10,0 0,-10z M180,210l10,0 0,10 -10,0 0,-10z M190,210l10,0 0,10 -10,0 0,-10z M200,210l10,0 0,10 -10,0 0,-10z M210,210l10,0 0,10 -10,0 0,-10z M230,210l10,0 0,10 -10,0 0,-10z M240,210l10,0 0,10 -10,0 0,-10z M10,220l10,0 0,10 -10,0 0,-10z M30,220l10,0 0,10 -10,0 0,-10z M40,220l10,0 0,10 -10,0 0,-10z M50,220l10,0 0,10 -10,0 0,-10z M70,220l10,0 0,10 -10,0 0,-10z M100,220l10,0 0,10 -10,0 0,-10z M110,220l10,0 0,10 -10,0 0,-10z M130,220l10,0 0,10 -10,0 0,-10z M150,220l10,0 0,10 -10,0 0,-10z M160,220l10,0 0,10 -10,0 0,-10z M170,220l10,0 0,10 -10,0 0,-10z M200,220l10,0 0,10 -10,0 0,-10z M250,220l10,0 0,10 -10,0 0,-10z M10,230l10,0 0,10 -10,0 0,-10z M30,230l10,0 0,10 -10,0 0,-10z M40,230l10,0 0,10 -10,0 0,-10z M50,230l10,0 0,10 -10,0 0,-10z M70,230l10,0 0,10 -10,0 0,-10z M100,230l10,0 0,10 -10,0 0,-10z M160,230l10,0 0,10 -10,0 0,-10z M180,230l10,0 0,10 -10,0 0,-10z M210,230l10,0 0,10 -10,0 0,-10z M230,230l10,0 0,10 -10,0 0,-10z M250,230l10,0 0,10 -10,0 0,-10z M10,240l10,0 0,10 -10,0 0,-10z M70,240l10,0 0,10 -10,0 0,-10z M90,240l10,0 0,10 -10,0 0,-10z M110,240l10,0 0,10 -10,0 0,-10z M130,240l10,0 0,10 -10,0 0,-10z M160,240l10,0 0,10 -10,0 0,-10z M180,240l10,0 0,10 -10,0 0,-10z M190,240l10,0 0,10 -10,0 0,-10z M220,240l10,0 0,10 -10,0 0,-10z M230,240l10,0 0,10 -10,0 0,-10z M250,240l10,0 0,10 -10,0 0,-10z M10,250l10,0 0,10 -10,0 0,-10z M20,250l10,0 0,10 -10,0 0,-10z M30,250l10,0 0,10 -10,0 0,-10z M40,250l10,0 0,10 -10,0 0,-10z M50,250l10,0 0,10 -10,0 0,-10z M60,250l10,0 0,10 -10,0 0,-10z M70,250l10,0 0,10 -10,0 0,-10z M150,250l10,0 0,10 -10,0 0,-10z M190,250l10,0 0,10 -10,0 0,-10z M200,250l10,0 0,10 -10,0 0,-10z M210,250l10,0 0,10 -10,0 0,-10z M230,250l10,0 0,10 -10,0 0,-10z M250,250l10,0 0,10 -10,0 0,-10z " stroke="transparent" fill="rgb(0, 0, 0)"/></svg>